<?xml version="1.0" encoding="UTF-8"?>
<svg version="1.1" xmlns="http://www.w3.org/2000/svg" width="512" height="512">
<path d="M0 0 C4.62 0 9.24 0 14 0 C14 27.39 14 54.78 14 83 C34.46 83 54.92 83 76 83 C76 163.19 76 243.38 76 326 C55.54 326 35.08 326 14 326 C14 357.02 14 388.04 14 420 C9.38 420 4.76 420 0 420 C0 388.98 0 357.96 0 326 C-20.79 326 -41.58 326 -63 326 C-63 245.81 -63 165.62 -63 83 C-42.21 83 -21.42 83 0 83 C0 55.61 0 28.22 0 0 Z " fill="#08CF58" transform="translate(418,50)"/>
<path d="M0 0 C4.62 0 9.24 0 14 0 C14 21.78 14 43.56 14 66 C34.79 66 55.58 66 77 66 C77 132.99 77 199.98 77 269 C56.21 269 35.42 269 14 269 C14 318.83 14 368.66 14 420 C9.38 420 4.76 420 0 420 C0 370.17 0 320.34 0 269 C-20.46 269 -40.92 269 -62 269 C-62 202.01 -62 135.02 -62 66 C-41.54 66 -21.08 66 0 66 C0 44.22 0 22.44 0 0 Z " fill="#0ACF59" transform="translate(78,50)"/>
<path d="M0 0 C4.62 0 9.24 0 14 0 C14 55.44 14 110.88 14 168 C34.46 168 54.92 168 76 168 C76 229.05 76 290.1 76 353 C55.54 353 35.08 353 14 353 C14 375.11 14 397.22 14 420 C9.38 420 4.76 420 0 420 C0 397.89 0 375.78 0 353 C-20.46 353 -40.92 353 -62 353 C-62 291.95 -62 230.9 -62 168 C-41.54 168 -21.08 168 0 168 C0 112.56 0 57.12 0 0 Z " fill="#F8312A" transform="translate(248,50)"/>
<path d="M0 0 C0.99 0 1.98 0 3 0 C3 0.66 3 1.32 3 2 C3.66 2.33 4.32 2.66 5 3 C4.67 82.2 4.34 161.4 4 243 C2.68 243 1.36 243 0 243 C0 162.81 0 82.62 0 0 Z " fill="#2FD26D" transform="translate(355,133)"/>
</svg>
